<svg width="674" height="767" viewBox="0 0 674 767" fill="none" xmlns="http://www.w3.org/2000/svg">
<path d="M251.377 12.8958C301.532 -1.54883 354.415 -3.89725 405.66 6.04424C417.348 8.26606 438.287 10.4741 442.193 23.053C444.065 29.0835 435.961 40.2858 429.787 39.5667C417.284 37.9797 405.013 33.5511 392.506 31.6419C288.546 15.7699 183.06 53.9609 115.753 134.92C101.531 152.028 90.4407 168.317 78.4789 187.276C-14.0602 355.948 17.9496 572.692 182.052 686.289C292.792 762.947 462.93 758.238 555.947 656.35C562.226 649.522 568.672 638.634 579.644 642.306C580.363 642.548 581.061 642.844 581.734 643.194C602.224 653.827 577.264 674.946 568.598 683.422C532.542 718.777 487.561 743.76 438.418 755.725C351.039 778.083 258.307 764.552 181.032 718.169C93.4466 665.645 35.8887 578.602 11.601 480.752C-4.54309 413.129 -3.82732 342.595 13.685 275.31C15.3207 268.954 21.0603 246.715 23.9066 242.345C28.6701 224.995 41.5787 196.744 50.1557 181.075C93.9743 101.021 162.844 39.2204 251.377 12.8958Z" fill="black"/>
<path d="M175.518 351.836C203.685 349.819 230.479 367.349 237.204 394.691C239.25 403.009 239.529 456.119 236.581 460.838C233.159 463.421 229.723 465.481 225.283 464.891C212.047 457.946 223.219 415.259 216.058 395.795C212.912 386.982 206.349 379.794 197.84 375.84C176.847 366.324 155.592 375.57 146.444 396.218C144.075 403.702 143.604 410.009 145.361 417.759C149.177 433.917 163.5 445.444 180.158 445.76C188.114 445.925 205.098 437.134 207.312 450.391C207.753 452.936 207.123 455.549 205.57 457.617C196.472 469.9 158.776 463.625 147.732 454.753C105.878 421.131 121.694 360.259 175.518 351.836Z" fill="black"/>
<path d="M435.039 352.717C443.851 351.951 449.986 351.928 458.716 354.091C472.78 357.5 484.835 366.486 492.089 378.965C495.493 384.78 497.873 391.133 499.129 397.747C502.263 414.461 499.886 440.828 499.651 458.024C499.57 463.911 482.839 469.753 480.62 454.571C478.158 437.727 484.525 411.182 478.458 396.062C465.599 364.015 422.286 363.695 408.325 397.117C400.512 423.373 419.146 447.098 446.714 446.21C453.887 445.98 465.314 436.574 469.686 447.925C470.779 450.759 470.612 453.922 469.226 456.627C467.743 459.47 464.841 461.574 461.752 462.306C445.138 466.243 429.203 466.379 414.043 457.412C400.565 449.37 390.88 436.285 387.154 421.079C379.17 387.772 403.185 359.803 435.039 352.717Z" fill="black"/>
<path d="M616.37 351.894C632.836 351.668 649.444 357.587 660.903 371.546C679.722 394.975 672.224 428.237 673.453 456.032C673.877 465.608 656.349 467.664 654.72 458.63C651.572 441.175 655.795 421.323 653.636 403.711C651.357 385.122 638.381 375.224 620.896 372.351C575.387 372.411 583.865 413.51 583.664 444.518C583.604 453.653 583.289 471.657 568.465 462.826C560.253 456.384 564.252 441.026 563.53 432.771C559.976 392.156 569.867 356.902 616.37 351.894Z" fill="black"/>
<path d="M312.672 279.688C319.765 279.634 325.739 282.076 325.675 290.134C325.233 346.174 326.479 402.501 324.959 458.443C324.882 461.28 320.528 463.337 318.205 464.505C316.075 464.394 313.882 464.16 311.793 463.741C309.227 463.227 307.374 462.097 305.979 459.864C304.556 457.589 303.516 293.03 305.546 286.27C306.615 282.711 309.645 281.378 312.672 279.688Z" fill="black"/>
</svg>
