<svg width="548" height="622" viewBox="0 0 548 622" fill="none" xmlns="http://www.w3.org/2000/svg">
<path d="M204.017 10.4664C244.732 -1.25605 287.66 -3.16244 329.26 4.90292C329.265 4.9038 329.269 4.90498 329.274 4.90585C333.631 5.73407 340.656 6.70335 346.744 8.73885C352.71 10.7334 359.399 14.2505 361.574 21.2555L361.638 21.4683C362.26 23.6722 361.936 25.9465 361.347 27.8219C360.72 29.8161 359.671 31.7646 358.422 33.4527C357.177 35.1354 355.618 36.7134 353.861 37.8599C352.145 38.9797 349.871 39.9184 347.366 39.6265L347.326 39.6217C342.059 38.9531 336.888 37.6922 331.951 36.4615C326.943 35.2128 322.183 33.997 317.402 33.2672C235.569 20.7736 152.596 50.8445 99.6799 114.494C88.5099 127.93 79.7717 140.744 70.301 155.745L70.175 155.959C-2.88518 289.358 22.6491 460.258 151.919 549.743C239.161 610.134 372.97 606.163 445.804 526.383L445.81 526.377L445.814 526.373C447.018 525.063 448.133 523.668 449.575 521.995C450.939 520.414 452.506 518.697 454.28 517.23C457.851 514.276 462.55 512.157 468.357 513.854L469.024 514.065C469.781 514.322 470.517 514.635 471.229 515.004C476.173 517.57 479.099 521.222 479.612 525.771C480.086 529.988 478.356 534.058 476.279 537.403C472.135 544.075 464.855 550.489 461.676 553.598L461.673 553.601C432.336 582.365 395.744 602.693 355.77 612.443C355.755 612.446 355.741 612.451 355.727 612.455L354.064 612.875C283.615 630.432 209.017 619.329 146.771 581.967L145.107 580.961C74.9361 538.221 28.8947 468.106 9.39966 389.566C9.39611 389.552 9.39202 389.539 9.3899 389.531C9.38888 389.527 9.38864 389.523 9.38794 389.52C9.38756 389.519 9.38625 389.517 9.38599 389.516C-3.67766 334.785 -3.09605 277.698 11.0774 223.241L11.0803 223.23C11.7375 220.676 13.2217 214.923 14.8313 209.356C15.6375 206.568 16.4868 203.784 17.2893 201.454C17.8542 199.813 18.5138 198.029 19.2376 196.629C19.3588 196.395 19.4568 196.149 19.5295 195.895C23.6476 181.528 33.8371 159.328 40.6116 146.95L41.4524 145.423C76.9767 81.3278 132.542 31.7223 203.95 10.4859L203.951 10.4869L204.017 10.4664Z" fill="black"/>
<path d="M497.042 281.515C511.192 281.321 525.736 286.422 535.814 298.699C535.823 298.71 535.833 298.721 535.842 298.732C544.151 309.078 546.497 321.432 547.017 333.551C547.277 339.612 547.083 345.758 546.894 351.648C546.705 357.597 546.521 363.271 546.759 368.649C546.904 371.943 545.451 374.61 543.371 376.418C541.374 378.153 538.826 379.103 536.394 379.415C533.966 379.726 531.274 379.451 528.935 378.287C526.492 377.072 524.425 374.852 523.841 371.614C522.492 364.136 522.738 356.253 523.05 348.816C523.369 341.215 523.754 334.1 522.939 327.456C522.136 320.908 519.502 316.115 515.695 312.68C511.899 309.253 506.696 306.966 500.393 305.883C492.067 305.943 486.713 307.855 483.177 310.596C479.606 313.363 477.403 317.351 476.109 322.448C474.801 327.6 474.49 333.62 474.534 340.108C474.556 343.336 474.663 346.601 474.763 349.893C474.861 353.163 474.952 356.458 474.932 359.641C474.92 361.466 474.896 363.896 474.662 366.358C474.432 368.775 473.976 371.521 472.96 373.899C471.944 376.278 470.081 378.904 466.741 379.834C463.513 380.732 460.088 379.7 456.726 377.697C456.579 377.61 456.438 377.513 456.304 377.408C451.48 373.624 450.649 367.556 450.553 362.865C450.502 360.413 450.654 357.927 450.768 355.82C450.872 353.878 450.937 352.322 450.875 351.079L450.84 350.565C449.393 334.027 450.601 317.916 457.425 305.283C464.412 292.349 476.954 283.662 496.669 281.539L496.855 281.522C496.918 281.519 496.98 281.516 497.042 281.515ZM144.13 281.478C168.393 279.741 191.753 294.831 197.648 318.798C198.171 320.925 198.496 325.258 198.705 330.126C198.922 335.176 199.03 341.291 199.013 347.303C198.995 353.308 198.852 359.267 198.56 363.992C198.415 366.347 198.228 368.459 197.991 370.143C197.873 370.982 197.734 371.78 197.562 372.479C197.416 373.077 197.16 373.986 196.658 374.79C196.399 375.205 196.065 375.568 195.675 375.863C192.826 378.013 188.941 380.574 183.7 379.878C183.235 379.816 182.784 379.673 182.368 379.455C177.957 377.14 176.251 372.253 175.473 367.812C174.658 363.165 174.618 357.537 174.715 351.961C174.815 346.229 175.059 340.526 174.929 335.158C174.798 329.766 174.287 325.263 173.093 322.017C173.088 322.005 173.084 321.993 173.08 321.981C170.928 315.951 166.438 311.028 160.611 308.312C146.07 301.726 131.438 307.893 124.904 322.392C123.261 327.669 122.976 331.941 124.183 337.289L124.311 337.808C127.123 348.675 136.874 356.395 148.203 356.609H148.211C149.24 356.631 150.794 356.343 153.112 355.842C155.212 355.387 157.836 354.786 160.336 354.551C162.785 354.32 165.782 354.359 168.433 355.722C171.375 357.235 173.184 359.993 173.796 363.654C174.33 366.772 173.553 369.969 171.655 372.496L171.654 372.495C168.969 376.104 164.564 377.923 160.185 378.802C155.693 379.703 150.548 379.757 145.524 379.276C140.478 378.793 135.377 377.754 130.92 376.352C126.546 374.977 122.456 373.151 119.681 370.921C101.746 356.513 95.9504 336.006 100.731 318.047C105.515 300.078 120.762 285.121 143.797 281.516C143.907 281.499 144.018 281.486 144.13 281.478ZM351.685 282.189C358.979 281.555 364.369 281.516 371.935 283.39C384.235 286.377 394.781 294.24 401.13 305.163C403.896 309.89 405.884 315.028 407.018 320.379L407.234 321.452L407.235 321.461C408.572 328.587 408.709 337.565 408.523 346.25C408.43 350.626 408.251 355.009 408.086 359.122C407.92 363.255 407.768 367.098 407.722 370.474C407.679 373.518 405.614 375.723 403.87 376.952C401.98 378.284 399.54 379.182 397.017 379.35C394.46 379.521 391.572 378.949 389.127 377.007C386.652 375.04 385.095 372.037 384.539 368.235C384.442 367.574 384.361 366.896 384.294 366.204C384.186 367.901 383.735 369.578 382.941 371.126C382.937 371.134 382.932 371.143 382.928 371.151C381.157 374.546 377.822 376.909 374.324 377.738C360.492 381.016 346.558 381.274 333.198 373.372C333.194 373.369 333.19 373.367 333.185 373.364C321.487 366.384 313.075 355.023 309.839 341.815C309.837 341.809 309.835 341.802 309.834 341.796C302.785 312.39 324.138 288.282 351.163 282.27L351.423 282.222C351.51 282.208 351.598 282.197 351.685 282.189ZM254.107 223.751C257.288 223.726 260.86 224.234 263.734 226.186C266.886 228.327 268.575 231.77 268.541 236.14C268.199 279.386 269.121 323.257 268.073 366.664L267.966 370.863C267.88 374.018 265.536 376.006 264.301 376.909C262.863 377.96 261.183 378.765 260.362 379.178C259.741 379.49 259.049 379.635 258.355 379.598C256.512 379.502 254.557 379.297 252.649 378.915C249.672 378.319 247.171 376.858 245.392 374.012L245.389 374.007C245.089 373.526 244.959 373.087 244.921 372.957C244.863 372.761 244.826 372.589 244.804 372.473C244.758 372.237 244.727 372.001 244.704 371.806C244.658 371.402 244.619 370.902 244.583 370.346C244.511 369.219 244.442 367.662 244.378 365.758C244.248 361.939 244.128 356.599 244.021 350.25C243.808 337.546 243.649 320.733 243.575 303.815C243.501 286.898 243.515 269.858 243.647 256.701C243.714 250.126 243.811 244.499 243.942 240.336C244.008 238.258 244.083 236.513 244.17 235.185C244.213 234.524 244.262 233.932 244.318 233.437C244.364 233.029 244.442 232.415 244.606 231.867L244.607 231.866C246.032 227.121 250.348 225.286 252.188 224.259L252.411 224.142C252.94 223.889 253.519 223.755 254.107 223.751ZM383.055 322.339C374.196 300.264 344.387 299.629 334.437 323.034C329.136 341.278 341.92 357.593 361.244 356.971C361.995 356.946 363.104 356.652 364.875 356.045C366.419 355.515 368.526 354.724 370.528 354.276C372.544 353.826 375.139 353.544 377.68 354.549C380.407 355.627 382.313 357.867 383.481 360.9L383.598 361.214C383.803 361.793 383.964 362.383 384.082 362.978C383.84 356.802 384.406 349.843 384.718 343.539C385.145 334.895 385.104 327.446 383.055 322.339Z" fill="black"/>
</svg>
